# File created by Blade
# Date/Time:  Thu Jan 22 16:25:57 2015
#---------------------------------------------------------
:version 1.10
:name HOM
:units
  mass 1.0
  length 1.000000
  angle deg
:documentation
     Acclaim Skeleton File
:root
   axis xyz
   order TX TY TZ RX RY RZ
   position 0.000000 0.000000 0.000000
   orientation 0 0 0
:bonedata
   begin
      id 1
      name RightUpLeg_dum
      direction -1.000000 0.000000 0.000000
      length 3.766986
      axis 0.0 0.0 0.0 xyz
   end
   begin
      id 2
      name LeftUpLeg_dum
      direction 1.000000 0.000000 0.000000
      length 3.766986
      axis 0.0 0.0 0.0 xyz
   end
   begin
      id 3
      name Spine_dum
      direction 0.000000 1.000000 0.000000
      length 7.779697
      axis 0.0 0.0 0.0 xyz
   end
   begin
      id 4
      name RightUpLeg
      direction 0.000000 -1.000000 0.000000
      length 18.017682
      axis 0.0 0.0 0.0 xyz
      dof rx ry rz
   end
   begin
      id 5
      name RightLeg
      direction 0.000000 -1.000000 0.000000
      length 16.881075
      axis 0.0 0.0 0.0 xyz
      dof rx ry rz
   end
   begin
      id 6
      name RightFoot
      direction 0.000000 -0.258819 0.965926
      length 5.770812
      axis 15.0 0.0 0.0 xyz
      dof rx ry rz
   end
   begin
      id 7
      name RightToeBase
      direction 0.000000 0.000000 1.000000
      length 2.952750
      axis 0.0 0.0 0.0 xyz
      dof rx ry rz
   end
   begin
      id 8
      name LeftUpLeg
      direction 0.000000 -1.000000 0.000000
      length 18.017682
      axis 0.0 0.0 0.0 xyz
      dof rx ry rz
   end
   begin
      id 9
      name LeftLeg
      direction 0.000000 -1.000000 0.000000
      length 16.881075
      axis 0.0 0.0 0.0 xyz
      dof rx ry rz
   end
   begin
      id 10
      name LeftFoot
      direction 0.000000 -0.258819 0.965926
      length 5.770812
      axis 15.0 0.0 0.0 xyz
      dof rx ry rz
   end
   begin
      id 11
      name LeftToeBase
      direction 0.000000 0.000000 1.000000
      length 2.952750
      axis 0.0 0.0 0.0 xyz
      dof rx ry rz
   end
   begin
      id 12
      name Spine
      direction 0.000000 1.000000 0.000000
      length 0.000000
      axis 0.0 0.0 0.0 xyz
      dof rx ry rz
   end
   begin
      id 13
      name Spine_dum1
      direction 0.000000 1.000000 0.000000
      length 10.941760
      axis 0.0 0.0 0.0 xyz
   end
   begin
      id 14
      name Spine_dum2
      direction 0.000000 1.000000 0.000000
      length 10.941760
      axis 0.0 0.0 0.0 xyz
   end
   begin
      id 15
      name Spine_dum3
      direction 0.000000 1.000000 0.000000
      length 16.646042
      axis 0.0 0.0 0.0 xyz
   end
   begin
      id 16
      name RightShoulder
      direction -1.000000 0.000000 0.000000
      length 7.708937
      axis 0.0 0.0 90.0 xyz
      dof rx ry rz
   end
   begin
      id 17
      name RightArm
      direction -1.000000 0.000000 0.000000
      length 11.521345
      axis 0.0 0.0 90.0 xyz
      dof rx ry rz
   end
   begin
      id 18
      name RightForeArm
      direction -1.000000 0.000000 0.000000
      length 10.175898
      axis 0.0 0.0 90.0 xyz
      dof ry rz rx
   end
   begin
      id 19
      name RightHand
      direction -1.000000 0.000000 0.000000
      length 0.000000
      axis 0.0 0.0 90.0 xyz
      dof rx ry rz
   end
   begin
      id 20
      name RightHand_dum1
      direction -1.000000 0.000000 0.000000
      length 3.937000
      axis 0.0 0.0 90.0 xyz
   end
   begin
      id 21
      name RightHand_dum2
      direction 0.000000 0.000000 0.000000
      length 0.000000
      axis 0.0 0.0 90.0 xyz
   end
   begin
      id 22
      name RightHandThumb1
      direction 0.000000 0.000000 1.000000
      length 3.937000
      axis 0.0 0.0 90.0 xyz
      dof rx rz ry
   end
   begin
      id 23
      name LeftShoulder
      direction 1.000000 0.000000 0.000000
      length 7.708937
      axis 0.0 0.0 -90.0 xyz
      dof rx ry rz
   end
   begin
      id 24
      name LeftArm
      direction 1.000000 0.000000 0.000000
      length 11.521345
      axis 0.0 0.0 -90.0 xyz
      dof rx ry rz
   end
   begin
      id 25
      name LeftForeArm
      direction 1.000000 0.000000 0.000000
      length 10.175898
      axis 0.0 0.0 -90.0 xyz
      dof ry rz rx
   end
   begin
      id 26
      name LeftHand
      direction 1.000000 0.000000 0.000000
      length 0.000000
      axis 0.0 0.0 -90.0 xyz
      dof rx ry rz
   end
   begin
      id 27
      name LeftHand_dum1
      direction 1.000000 0.000000 0.000000
      length 3.937000
      axis 0.0 0.0 -90.0 xyz
   end
   begin
      id 28
      name LeftHand_dum2
      direction 0.000000 0.000000 0.000000
      length 0.000000
      axis 0.0 0.0 -90.0 xyz
   end
   begin
      id 29
      name LeftHandThumb1
      direction 0.000000 0.000000 1.000000
      length 3.937000
      axis 0.0 0.0 -90.0 xyz
      dof rx rz ry
   end
   begin
      id 30
      name Head
      direction 0.000000 1.000000 0.000000
      length 4.527550
      axis 0.0 0.0 0.0 xyz
      dof rx ry rz
   end
:hierarchy
   begin
      root RightUpLeg_dum LeftUpLeg_dum Spine_dum
      RightUpLeg_dum RightUpLeg
      LeftUpLeg_dum LeftUpLeg
      Spine_dum Spine
      RightUpLeg RightLeg
      RightLeg RightFoot
      RightFoot RightToeBase
      LeftUpLeg LeftLeg
      LeftLeg LeftFoot
      LeftFoot LeftToeBase
      Spine Spine_dum1 Spine_dum2 Spine_dum3
      Spine_dum1 RightShoulder
      Spine_dum2 LeftShoulder
      Spine_dum3 Head
      RightShoulder RightArm
      RightArm RightForeArm
      RightForeArm RightHand
      RightHand RightHand_dum1 RightHand_dum2
      RightHand_dum2 RightHandThumb1
      LeftShoulder LeftArm
      LeftArm LeftForeArm
      LeftForeArm LeftHand
      LeftHand LeftHand_dum1 LeftHand_dum2
      LeftHand_dum2 LeftHandThumb1
   end

# File created by Blade
# Date/Time:  Thu Jan 22 16:25:48 2015
# Frame Rate: 120.000 fps
#------------------------------------------------------
:FULLY-SPECIFIED
:DEGREES
1
root 1.699239 37.137924 5.970450 -2.169728 -2.920485 2.192836
RightUpLeg 11.328017 1.001445 -2.908860
RightLeg -6.158355 -0.000000 0.000000
RightFoot -11.884952 -13.751512 17.808120
RightToeBase 14.714060 -0.000000 -0.000000
LeftUpLeg 9.844771 1.856216 -0.459607
LeftLeg -2.646975 -0.000000 0.000000
LeftFoot -9.408896 11.802209 -16.040475
LeftToeBase 9.392633 -0.000000 -0.000000
Spine 3.324394 -3.703506 -2.309558
RightShoulder -3.838328 -7.071147 -25.142249
RightArm 7.549214 28.511538 31.607354
RightForeArm 7.692955 -0.000000 17.988795
RightHand 1.136235 -0.000000 1.459988
RightHandThumb1 -24.326973 -0.000000 -32.862282
LeftShoulder -23.036082 28.737288 15.538001
LeftArm 42.474120 -49.794956 -54.039305
LeftForeArm 39.271288 -0.000000 6.172290
LeftHand -17.056580 0.000000 -8.325023
LeftHandThumb1 -26.253704 0.000000 33.147579
Head -3.025550 13.259898 3.280563
2
root 1.700477 37.139090 5.970783 -2.177471 -2.911885 2.177935
RightUpLeg 11.333635 0.924339 -2.906700
RightLeg -6.085335 -0.000000 0.000000
RightFoot -11.865647 -13.653838 17.667594
RightToeBase 14.563520 -0.000000 -0.000000
LeftUpLeg 9.849690 1.843425 -0.446737
LeftLeg -2.640651 -0.000000 0.000000
LeftFoot -9.407506 11.806879 -16.032957
LeftToeBase 9.377536 -0.000000 -0.000000
Spine 3.330553 -3.708332 -2.276205
RightShoulder -3.836698 -7.048265 -25.138785
RightArm 7.528129 28.490201 31.596497
RightForeArm 7.669339 -0.000000 18.010558
RightHand 1.171761 -0.000000 1.415866
RightHandThumb1 -24.326973 -0.000000 -32.862282
LeftShoulder -23.038121 28.739347 15.523188
LeftArm 42.530051 -49.794503 -54.083508
LeftForeArm 39.263964 -0.000000 6.130952
LeftHand -17.069881 -0.000000 -8.305478
LeftHandThumb1 -26.253704 0.000000 33.147579
Head -3.000367 13.230767 3.266998
3
root 1.700596 37.139968 5.971919 -2.194309 -2.907864 2.156891
RightUpLeg 11.350292 0.859072 -2.899696
RightLeg -6.007923 -0.000000 0.000000
RightFoot -11.842093 -13.538689 17.536836
RightToeBase 14.412527 -0.000000 -0.000000
LeftUpLeg 9.866427 1.854006 -0.422831
LeftLeg -2.634426 -0.000000 0.000000
LeftFoot -9.410538 11.784218 -16.031913
LeftToeBase 9.380799 -0.000000 -0.000000
Spine 3.345999 -3.712632 -2.236568
RightShoulder -3.832853 -7.043406 -25.142376
RightArm 7.523850 28.494433 31.606206
RightForeArm 7.611765 0.000000 18.037221
RightHand 1.166228 -0.000000 1.369846
RightHandThumb1 -24.326973 -0.000000 -32.862282
LeftShoulder -23.039894 28.742299 15.508928
LeftArm 42.593338 -49.810860 -54.141440
LeftForeArm 39.233371 -0.000000 6.083638
LeftHand -17.039082 -0.000000 -8.334574
LeftHandThumb1 -26.253704 0.000000 33.147579
Head -2.974419 13.243623 3.259206
4
root 1.701981 37.141353 5.972958 -2.214585 -2.895670 2.134575
RightUpLeg 11.368590 0.713799 -2.902321
RightLeg -5.892014 -0.000000 0.000000
RightFoot -11.811419 -13.331418 17.362352
RightToeBase 14.224135 -0.000000 -0.000000
LeftUpLeg 9.887483 1.839287 -0.402879
LeftLeg -2.632657 -0.000000 0.000000
LeftFoot -9.419001 11.780779 -16.036942
LeftToeBase 9.404252 -0.000000 -0.000000
Spine 3.366181 -3.723503 -2.191099
RightShoulder -3.837793 -7.064598 -25.133394
RightArm 7.542679 28.467550 31.590451
RightForeArm 7.629308 0.000000 18.044304
RightHand 1.187074 -0.000000 1.342204
RightHandThumb1 -24.326973 -0.000000 -32.862282
LeftShoulder -23.040969 28.759052 15.483610
LeftArm 42.692152 -49.860560 -54.257704
LeftForeArm 39.281578 -0.000000 6.070851
LeftHand -17.050951 -0.000000 -8.355990
LeftHandThumb1 -26.253704 0.000000 33.147579
Head -2.949320 13.239739 3.238425
5
root 1.700736 37.142933 5.972922 -2.219277 -2.894837 2.103868
RightUpLeg 11.405766 0.908447 -2.850077
RightLeg -5.956131 -0.000000 0.000000
RightFoot -11.724274 -13.505497 17.293496
RightToeBase 14.044494 -0.000000 -0.000000
LeftUpLeg 9.890692 1.844348 -0.367402
LeftLeg -2.626683 -0.000000 0.000000
LeftFoot -9.418153 11.766126 -16.041156
LeftToeBase 9.406878 -0.000000 -0.000000
Spine 3.368455 -3.724774 -2.142071
RightShoulder -3.829405 -7.051211 -25.133061
RightArm 7.528239 28.474813 31.590387
RightForeArm 7.620307 -0.000000 18.067304
RightHand 1.190672 -0.000000 1.358648
RightHandThumb1 -24.326973 -0.000000 -32.862282
LeftShoulder -23.042981 28.762486 15.472978
LeftArm 42.740427 -49.866028 -54.313488
LeftForeArm 39.280375 -0.000000 6.048238
LeftHand -17.061358 0.000000 -8.402416
LeftHandThumb1 -26.253704 0.000000 33.147579
Head -2.924887 13.254688 3.230452
6
root 1.701694 37.143131 5.971633 -2.221254 -2.900673 2.091372
RightUpLeg 11.411909 1.008454 -2.835434
RightLeg -5.919552 -0.000000 0.000000
RightFoot -11.690128 -13.540465 17.178628
RightToeBase 13.804663 -0.000000 -0.000000
LeftUpLeg 9.885954 1.858541 -0.349488
LeftLeg -2.616931 -0.000000 0.000000
LeftFoot -9.411350 11.732350 -15.999615
LeftToeBase 9.403992 -0.000000 -0.000000
Spine 3.370289 -3.713409 -2.113256
RightShoulder -3.831193 -7.061263 -25.131505
RightArm 7.544598 28.523790 31.609550
RightForeArm 7.582403 -0.000000 18.071197
RightHand 1.199595 -0.000000 1.375678
RightHandThumb1 -24.326973 -0.000000 -32.862282
LeftShoulder -23.028673 28.758581 15.479764
LeftArm 42.774303 -49.873816 -54.366919
LeftForeArm 39.288545 -0.000000 6.029714
LeftHand -17.066658 0.000000 -8.406991
LeftHandThumb1 -26.253704 0.000000 33.147579
Head -2.902428 13.248244 3.220807
7
root 1.703652 37.143006 5.970922 -2.221684 -2.898729 2.097782
RightUpLeg 11.411045 0.998739 -2.846248
RightLeg -5.916988 -0.000000 0.000000
RightFoot -11.696931 -13.523123 17.181772
RightToeBase 13.836639 -0.000000 -0.000000
LeftUpLeg 9.880674 1.850061 -0.365176
LeftLeg -2.605740 -0.000000 0.000000
LeftFoot -9.440878 11.757087 -16.051882
LeftToeBase 9.428257 -0.000000 -0.000000
Spine 3.366438 -3.723230 -2.108321
RightShoulder -3.811242 -7.045738 -25.133839
RightArm 7.522369 28.525505 31.612624
RightForeArm 7.582433 -0.000000 18.105586
RightHand 1.167741 -0.000000 1.382975
RightHandThumb1 -24.326973 -0.000000 -32.862282
LeftShoulder -23.024202 28.759982 15.477794
LeftArm 42.782122 -49.881410 -54.383768
LeftForeArm 39.299265 -0.000000 6.014137
LeftHand -17.050328 -0.000000 -8.464091
LeftHandThumb1 -26.253704 0.000000 33.147579
Head -2.875947 13.274618 3.219901
8
root 1.705336 37.142962 5.969835 -2.222879 -2.901318 2.102410
RightUpLeg 11.413309 1.019431 -2.851877
RightLeg -5.921587 -0.000000 0.000000
RightFoot -11.689774 -13.536385 17.171707
RightToeBase 13.811488 -0.000000 -0.000000
LeftUpLeg 9.872669 1.870822 -0.368650
LeftLeg -2.591349 -0.000000 0.000000
LeftFoot -9.433519 11.734333 -16.029175
LeftToeBase 9.427496 -0.000000 -0.000000
Spine 3.367172 -3.719722 -2.103705
RightShoulder -3.814290 -7.065478 -25.126104
RightArm 7.544942 28.526282 31.621756
RightForeArm 7.594956 -0.000000 18.116798
RightHand 1.150589 -0.000000 1.400108
RightHandThumb1 -24.326973 -0.000000 -32.862282
LeftShoulder -23.024646 28.779008 15.473421
LeftArm 42.835339 -49.898414 -54.449235
LeftForeArm 39.318284 -0.000000 6.012012
LeftHand -17.049195 0.000000 -8.468785
LeftHandThumb1 -26.253704 0.000000 33.147579
Head -2.861501 13.291080 3.216259
9
root 1.707395 37.142702 5.968487 -2.219204 -2.903739 2.110111
RightUpLeg 11.411473 1.043972 -2.861160
RightLeg -5.929015 -0.000000 0.000000
RightFoot -11.707110 -13.535138 17.201571
RightToeBase 13.849893 -0.000000 -0.000000
LeftUpLeg 9.864593 1.867894 -0.380770
LeftLeg -2.586946 -0.000000 0.000000
LeftFoot -9.436012 11.741909 -16.034206
LeftToeBase 9.399903 -0.000000 -0.000000
Spine 3.361562 -3.713197 -2.104095
RightShoulder -3.822182 -7.096326 -25.125381
RightArm 7.578577 28.553803 31.657371
RightForeArm 7.579940 0.000000 18.132713
RightHand 1.144638 -0.000000 1.379556
RightHandThumb1 -24.326973 -0.000000 -32.862282
LeftShoulder -23.032976 28.805005 15.467872
LeftArm 42.884215 -49.897003 -54.504056
LeftForeArm 39.340680 -0.000000 6.025851
LeftHand -17.025601 -0.000000 -8.470659
LeftHandThumb1 -26.253704 0.000000 33.147579
Head -2.845248 13.299564 3.227496
10
root 1.709421 37.142793 5.967640 -2.221592 -2.904926 2.112573
RightUpLeg 11.415318 1.058326 -2.867086
RightLeg -5.934687 -0.000000 0.000000
RightFoot -11.699471 -13.543437 17.200161
RightToeBase 13.838520 -0.000000 -0.000000
LeftUpLeg 9.857781 1.871868 -0.385606
LeftLeg -2.571650 -0.000000 0.000000
LeftFoot -9.434734 11.740416 -16.021531
LeftToeBase 9.373072 -0.000000 -0.000000
Spine 3.364189 -3.713086 -2.097214
RightShoulder -3.819372 -7.099199 -25.125916
RightArm 7.585776 28.547409 31.669755
RightForeArm 7.595613 -0.000000 18.147139
RightHand 1.135620 -0.000000 1.387584
RightHandThumb1 -24.326973 -0.000000 -32.862282
LeftShoulder -23.029100 28.796920 15.464507
LeftArm 42.875288 -49.891670 -54.506049
LeftForeArm 39.353469 -0.000000 6.045109
LeftHand -17.066470 0.000000 -8.475078
LeftHandThumb1 -26.253704 0.000000 33.147579
Head -2.830881 13.302895 3.229309
11
root 1.711593 37.142732 5.967009 -2.226698 -2.907160 2.113036
RightUpLeg 11.421247 1.076808 -2.871850
RightLeg -5.936695 -0.000000 0.000000
RightFoot -11.708096 -13.531125 17.232982
RightToeBase 13.870239 -0.000000 -0.000000
LeftUpLeg 9.855368 1.891152 -0.386164
LeftLeg -2.559351 -0.000000 0.000000
LeftFoot -9.445263 11.720945 -16.031622
LeftToeBase 9.405536 -0.000000 -0.000000
Spine 3.373037 -3.706607 -2.088346
RightShoulder -3.829321 -7.117268 -25.117506
RightArm 7.616920 28.539970 31.675046
RightForeArm 7.619188 -0.000000 18.140383
RightHand 1.115577 0.000000 1.416637
RightHandThumb1 -24.326973 -0.000000 -32.862282
LeftShoulder -23.038756 28.823688 15.454976
LeftArm 42.919526 -49.885767 -54.555702
LeftForeArm 39.364625 -0.000000 6.063969
LeftHand -17.069024 -0.000000 -8.445305
LeftHandThumb1 -26.253704 0.000000 33.147579
Head -2.830357 13.325171 3.245104
12
root 1.713984 37.142668 5.965618 -2.223615 -2.903566 2.119416
RightUpLeg 11.420200 1.090469 -2.881495
RightLeg -5.943254 -0.000000 0.000000
RightFoot -11.700488 -13.537083 17.226165
RightToeBase 13.829595 -0.000000 -0.000000
LeftUpLeg 9.840355 1.881853 -0.395782
LeftLeg -2.541064 -0.000000 0.000000
LeftFoot -9.451834 11.711854 -16.038476
LeftToeBase 9.405207 -0.000000 -0.000000
Spine 3.368830 -3.706737 -2.086477
RightShoulder -3.830231 -7.135964 -25.113820
RightArm 7.642416 28.555321 31.691465
RightForeArm 7.610279 -0.000000 18.139666
RightHand 1.082450 -0.000000 1.409120
RightHandThumb1 -24.326973 -0.000000 -32.862282
LeftShoulder -23.030746 28.810649 15.461598
LeftArm 42.906125 -49.874731 -54.558588
LeftForeArm 39.384158 0.000000 6.088039
LeftHand -17.065725 0.000000 -8.457373
LeftHandThumb1 -26.253704 0.000000 33.147579
Head -2.814846 13.314950 3.252522
13
root 1.717473 37.142944 5.965161 -2.222955 -2.907667 2.135871
RightUpLeg 11.420299 1.097306 -2.906657
RightLeg -5.946640 -0.000000 0.000000
RightFoot -11.689597 -13.518593 17.209591
RightToeBase 13.825420 -0.000000 -0.000000
LeftUpLeg 9.822763 1.843547 -0.422274
LeftLeg -2.512566 -0.000000 0.000000
LeftFoot -9.466007 11.745906 -16.060379
LeftToeBase 9.399710 -0.000000 -0.000000
Spine 3.367305 -3.698476 -2.097369
RightShoulder -3.839768 -7.127966 -25.106598
RightArm 7.660899 28.539724 31.703148
RightForeArm 7.617427 0.000000 18.142255
RightHand 1.046408 0.000000 1.381218
RightHandThumb1 -24.326973 -0.000000 -32.862282
LeftShoulder -23.031039 28.805276 15.466952
LeftArm 42.880414 -49.843039 -54.549118
LeftForeArm 39.379969 -0.000000 6.127028
LeftHand -17.058693 -0.000000 -8.425747
LeftHandThumb1 -26.253704 0.000000 33.147579
Head -2.809862 13.292056 3.260979
